<svg width="24" height="24" viewBox="0 0 24 24" fill="none" xmlns="http://www.w3.org/2000/svg">
<path d="M23 0C23.5523 0 24 0.447715 24 1V22.4424L23.9873 22.6074C23.8706 23.3498 22.9761 23.6996 22.3867 23.2334L22.2656 23.1211L18 18.5L15.9893 16.3213C15.8236 16.142 15.5988 16.031 15.3584 16.0059L15.2549 16H1L0.897461 15.9951C0.393331 15.9438 0 15.5177 0 15V1C0 0.447715 0.447715 2.57702e-07 1 0H23ZM1.5 14.5H15.2549C15.8652 14.5001 16.4513 14.723 16.9053 15.1221L17.0918 15.3047L19.1025 17.4824L22.5 21.1631V1.5H1.5V14.5ZM6 6C7.10457 6 8 6.89543 8 8C8 9.10457 7.10457 10 6 10C4.89543 10 4 9.10457 4 8C4 6.89543 4.89543 6 6 6ZM12 6C13.1046 6 14 6.89543 14 8C14 9.10457 13.1046 10 12 10C10.8954 10 10 9.10457 10 8C10 6.89543 10.8954 6 12 6ZM18 6C19.1046 6 20 6.89543 20 8C20 9.10457 19.1046 10 18 10C16.8954 10 16 9.10457 16 8C16 6.89543 16.8954 6 18 6Z" fill="#333333"/>
</svg>
