<svg width="24" height="22" viewBox="0 0 24 22" fill="none" xmlns="http://www.w3.org/2000/svg">
<path d="M11.8672 1.63617C11.9449 1.57512 12.0551 1.57512 12.1328 1.63617L21.6543 9.11761C21.8139 9.24343 21.7249 9.50043 21.5215 9.50043H19.7139C18.8856 9.50065 18.2139 10.1721 18.2139 11.0004V20.4282C18.2139 20.5465 18.1183 20.643 18 20.643H6C5.88165 20.643 5.78613 20.5465 5.78613 20.4282V11.0004C5.78613 10.1721 5.11437 9.50065 4.28613 9.50043H2.47852C2.27514 9.50043 2.1861 9.24343 2.3457 9.11761L11.8672 1.63617Z" fill="#F9FAFB" stroke="#333333" stroke-width="1.28571"/>
<mask id="path-2-inside-1_42_94" fill="white">
<rect x="9" y="11" width="6" height="8" rx="0.857143"/>
</mask>
<rect x="9" y="11" width="6" height="8" rx="0.857143" fill="#F9FAFB" stroke="#333333" stroke-width="2.57143" mask="url(#path-2-inside-1_42_94)"/>
</svg>
