<svg width="24" height="24" viewBox="0 0 24 24" fill="none" xmlns="http://www.w3.org/2000/svg">
<mask id="path-1-inside-1_48_97" fill="white">
<path d="M12 12C15.1826 12 18.2349 13.2642 20.4854 15.5146C22.7358 17.7651 24 20.8174 24 24H0C4.80559e-07 20.8174 1.26421 17.7651 3.51465 15.5146C5.76508 13.2642 8.8174 12 12 12ZM12 0C14.7614 0 17 2.23858 17 5C17 7.76142 14.7614 10 12 10C9.23858 10 7 7.76142 7 5C7 2.23858 9.23858 0 12 0Z"/>
</mask>
<path d="M12 12C15.1826 12 18.2349 13.2642 20.4854 15.5146C22.7358 17.7651 24 20.8174 24 24H0C4.80559e-07 20.8174 1.26421 17.7651 3.51465 15.5146C5.76508 13.2642 8.8174 12 12 12ZM12 0C14.7614 0 17 2.23858 17 5C17 7.76142 14.7614 10 12 10C9.23858 10 7 7.76142 7 5C7 2.23858 9.23858 0 12 0Z" fill="#333333"/>
<path d="M12 12L12 10.5H12L12 12ZM20.4854 15.5146L21.546 14.454L21.546 14.454L20.4854 15.5146ZM24 24V25.5H25.5V24H24ZM0 24L-1.5 24L-1.5 25.5H0V24ZM3.51465 15.5146L2.45399 14.454L2.45399 14.454L3.51465 15.5146ZM12 12L12 13.5C14.7848 13.5 17.4556 14.6062 19.4247 16.5753L20.4854 15.5146L21.546 14.454C19.0142 11.9222 15.5804 10.5 12 10.5L12 12ZM20.4854 15.5146L19.4247 16.5753C21.3938 18.5444 22.5 21.2152 22.5 24H24H25.5C25.5 20.4196 24.0778 16.9858 21.546 14.454L20.4854 15.5146ZM24 24V22.5H0V24V25.5H24V24ZM0 24L1.5 24C1.5 21.2152 2.6062 18.5444 4.57531 16.5753L3.51465 15.5146L2.45399 14.454C-0.077775 16.9858 -1.5 20.4196 -1.5 24L0 24ZM3.51465 15.5146L4.57531 16.5753C6.54442 14.6062 9.2152 13.5 12 13.5L12 12L12 10.5C8.41961 10.5 4.98575 11.9222 2.45399 14.454L3.51465 15.5146ZM12 0V1.5C13.933 1.5 15.5 3.067 15.5 5H17H18.5C18.5 1.41015 15.5899 -1.5 12 -1.5V0ZM17 5H15.5C15.5 6.933 13.933 8.5 12 8.5V10V11.5C15.5899 11.5 18.5 8.58985 18.5 5H17ZM12 10V8.5C10.067 8.5 8.5 6.933 8.5 5H7H5.5C5.5 8.58985 8.41015 11.5 12 11.5V10ZM7 5H8.5C8.5 3.067 10.067 1.5 12 1.5V0V-1.5C8.41015 -1.5 5.5 1.41015 5.5 5H7Z" fill="#333333" mask="url(#path-1-inside-1_48_97)"/>
</svg>
