<svg width="22" height="20" viewBox="0 0 22 20" fill="none" xmlns="http://www.w3.org/2000/svg">
<mask id="path-1-inside-1_48_165" fill="white">
<path d="M8.39258 0C9.49715 0 10.3926 0.895431 10.3926 2C10.3926 2.33827 10.3074 2.65622 10.1592 2.93555L10.4854 3.5L13.3057 8.38477L18.8633 5.05078C20.1963 4.25095 21.8926 5.21201 21.8926 6.7666V17.5C21.8926 18.6046 20.9971 19.5 19.8926 19.5H2.00293C-0.0252781 19.4999 -0.765228 16.8289 0.973633 15.7852L11.5898 9.41406L8.75293 4.5L8.46191 3.99609C8.43891 3.99688 8.41577 4 8.39258 4C7.28807 3.99993 6.39258 3.10452 6.39258 2C6.39258 0.895477 7.28807 7.47301e-05 8.39258 0Z"/>
</mask>
<path d="M8.39258 0C9.49715 0 10.3926 0.895431 10.3926 2C10.3926 2.33827 10.3074 2.65622 10.1592 2.93555L10.4854 3.5L13.3057 8.38477L18.8633 5.05078C20.1963 4.25095 21.8926 5.21201 21.8926 6.7666V17.5C21.8926 18.6046 20.9971 19.5 19.8926 19.5H2.00293C-0.0252781 19.4999 -0.765228 16.8289 0.973633 15.7852L11.5898 9.41406L8.75293 4.5L8.46191 3.99609C8.43891 3.99688 8.41577 4 8.39258 4C7.28807 3.99993 6.39258 3.10452 6.39258 2C6.39258 0.895477 7.28807 7.47301e-05 8.39258 0Z" fill="#333333"/>
<path d="M8.39258 0L8.39258 -1L8.39251 -1L8.39258 0ZM10.1592 2.93555L9.27587 2.46676L9.01614 2.95616L9.29334 3.43587L10.1592 2.93555ZM10.4854 3.5L11.3514 2.99999L11.3512 2.99967L10.4854 3.5ZM13.3057 8.38477L12.4396 8.88478L12.9481 9.76541L13.8201 9.2423L13.3057 8.38477ZM18.8633 5.05078L19.3777 5.90831L19.3778 5.90827L18.8633 5.05078ZM2.00293 19.5L2.00287 20.5H2.00293V19.5ZM0.973633 15.7852L0.459056 14.9277L0.458978 14.9278L0.973633 15.7852ZM11.5898 9.41406L12.1044 10.2715L12.9475 9.76558L12.4559 8.91409L11.5898 9.41406ZM8.75293 4.5L9.61897 4.00003L9.61889 3.99989L8.75293 4.5ZM8.46191 3.99609L9.32788 3.49598L9.02772 2.97625L8.42789 2.99667L8.46191 3.99609ZM8.39258 4L8.39251 5H8.39258V4ZM8.39258 0V1C8.94486 1 9.39258 1.44772 9.39258 2H10.3926H11.3926C11.3926 0.343146 10.0494 -1 8.39258 -1V0ZM10.3926 2H9.39258C9.39258 2.16814 9.35068 2.3258 9.27587 2.46676L10.1592 2.93555L11.0425 3.40434C11.2642 2.98664 11.3926 2.50839 11.3926 2H10.3926ZM10.1592 2.93555L9.29334 3.43587L9.61952 4.00033L10.4854 3.5L11.3512 2.99967L11.025 2.43522L10.1592 2.93555ZM10.4854 3.5L9.61933 4.00001L12.4396 8.88478L13.3057 8.38477L14.1717 7.88475L11.3514 2.99999L10.4854 3.5ZM13.3057 8.38477L13.8201 9.2423L19.3777 5.90831L18.8633 5.05078L18.3489 4.19325L12.7912 7.52723L13.3057 8.38477ZM18.8633 5.05078L19.3778 5.90827C20.0438 5.50865 20.8926 5.98873 20.8926 6.7666H21.8926H22.8926C22.8926 4.43529 20.3489 2.99325 18.3488 4.19329L18.8633 5.05078ZM21.8926 6.7666H20.8926V17.5H21.8926H22.8926V6.7666H21.8926ZM21.8926 17.5H20.8926C20.8926 18.0523 20.4449 18.5 19.8926 18.5V19.5V20.5C21.5494 20.5 22.8926 19.1569 22.8926 17.5H21.8926ZM19.8926 19.5V18.5H2.00293V19.5V20.5H19.8926V19.5ZM2.00293 19.5L2.00299 18.5C0.98884 18.4999 0.618939 17.1644 1.48829 16.6426L0.973633 15.7852L0.458978 14.9278C-2.1494 16.4934 -1.0394 20.4998 2.00287 20.5L2.00293 19.5ZM0.973633 15.7852L1.48821 16.6426L12.1044 10.2715L11.5898 9.41406L11.0753 8.55662L0.459056 14.9277L0.973633 15.7852ZM11.5898 9.41406L12.4559 8.91409L9.61897 4.00003L8.75293 4.5L7.88689 4.99997L10.7238 9.91403L11.5898 9.41406ZM8.75293 4.5L9.61889 3.99989L9.32788 3.49598L8.46191 3.99609L7.59595 4.4962L7.88697 5.00011L8.75293 4.5ZM8.46191 3.99609L8.42789 2.99667C8.40578 2.99743 8.3871 2.99862 8.37494 2.99947C8.36876 2.9999 8.3633 3.00031 8.35957 3.0006C8.35774 3.00074 8.35586 3.00088 8.35464 3.00098C8.35324 3.00109 8.35232 3.00116 8.35153 3.00122C8.34782 3.0015 8.3513 3.0012 8.35736 3.00088C8.36384 3.00054 8.37627 3 8.39258 3V4V5C8.44528 5 8.48967 4.99649 8.50311 4.99546C8.50563 4.99527 8.51232 4.99476 8.51239 4.99475C8.51444 4.99459 8.51475 4.99457 8.51434 4.9946C8.51371 4.99465 8.50655 4.99515 8.49594 4.99551L8.46191 3.99609ZM8.39258 4L8.39265 3C7.8403 2.99996 7.39258 2.55217 7.39258 2H6.39258H5.39258C5.39258 3.65688 6.73584 4.99989 8.39251 5L8.39258 4ZM6.39258 2H7.39258C7.39258 1.44783 7.8403 1.00004 8.39265 1L8.39258 0L8.39251 -1C6.73584 -0.999888 5.39258 0.343124 5.39258 2H6.39258Z" fill="#333333" mask="url(#path-1-inside-1_48_165)"/>
</svg>
