<svg width="24" height="24" viewBox="0 0 24 24" fill="none" xmlns="http://www.w3.org/2000/svg">
<mask id="path-1-inside-1_33_38" fill="white">
<path d="M11.2793 0.202148C11.6364 -0.0682281 12.1303 -0.0684066 12.4873 0.202148L23.3682 8.44824C24.1317 9.02723 23.722 10.2451 22.7637 10.2451H18.8828C18.3306 10.2452 17.8828 10.6929 17.8828 11.2451V22.7451C17.8827 23.2973 17.435 23.7451 16.8828 23.7451H6.88281C6.33069 23.745 5.88294 23.2972 5.88281 22.7451V11.2451C5.88281 10.6928 5.4351 10.2451 4.88281 10.2451H1.00195C0.0434847 10.2451 -0.365493 9.02713 0.398438 8.44824L11.2793 0.202148Z"/>
</mask>
<path d="M11.2793 0.202148C11.6364 -0.0682281 12.1303 -0.0684066 12.4873 0.202148L23.3682 8.44824C24.1317 9.02723 23.722 10.2451 22.7637 10.2451H18.8828C18.3306 10.2452 17.8828 10.6929 17.8828 11.2451V22.7451C17.8827 23.2973 17.435 23.7451 16.8828 23.7451H6.88281C6.33069 23.745 5.88294 23.2972 5.88281 22.7451V11.2451C5.88281 10.6928 5.4351 10.2451 4.88281 10.2451H1.00195C0.0434847 10.2451 -0.365493 9.02713 0.398438 8.44824L11.2793 0.202148Z" fill="#333333"/>
<path d="M11.2793 0.202148L10.3739 -0.993774L10.3733 -0.99333L11.2793 0.202148ZM12.4873 0.202148L13.3933 -0.99333L13.3932 -0.993377L12.4873 0.202148ZM23.3682 8.44824L24.2745 7.25303L24.2742 7.25276L23.3682 8.44824ZM18.8828 10.2451L18.8828 8.74512L18.8825 8.74512L18.8828 10.2451ZM17.8828 22.7451L19.3828 22.7455V22.7451H17.8828ZM6.88281 23.7451L6.88253 25.2451H6.88281V23.7451ZM5.88281 22.7451L4.38281 22.7451L4.38281 22.7455L5.88281 22.7451ZM1.00195 10.2451L1.00189 11.7451H1.00195V10.2451ZM0.398438 8.44824L1.30437 9.64377L1.30443 9.64372L0.398438 8.44824ZM11.2793 0.202148L12.1847 1.39807C12.0068 1.53279 11.7605 1.53343 11.5814 1.39767L12.4873 0.202148L13.3932 -0.993377C12.5 -1.67024 11.2661 -1.66924 10.3739 -0.993774L11.2793 0.202148ZM12.4873 0.202148L11.5813 1.39763L22.4622 9.64372L23.3682 8.44824L24.2742 7.25276L13.3933 -0.99333L12.4873 0.202148ZM23.3682 8.44824L22.4618 9.64346C22.0794 9.35349 22.2852 8.74512 22.7637 8.74512V10.2451V11.7451C25.1589 11.7451 26.184 8.70097 24.2745 7.25303L23.3682 8.44824ZM22.7637 10.2451V8.74512H18.8828V10.2451V11.7451H22.7637V10.2451ZM18.8828 10.2451L18.8825 8.74512C17.5024 8.74537 16.3828 9.86419 16.3828 11.2451H17.8828H19.3828C19.3828 11.5216 19.1588 11.7451 18.8831 11.7451L18.8828 10.2451ZM17.8828 11.2451H16.3828V22.7451H17.8828H19.3828V11.2451H17.8828ZM17.8828 22.7451L16.3828 22.7448C16.3829 22.4691 16.6063 22.2451 16.8828 22.2451V23.7451V25.2451C18.2638 25.2451 19.3825 24.1255 19.3828 22.7455L17.8828 22.7451ZM16.8828 23.7451V22.2451H6.88281V23.7451V25.2451H16.8828V23.7451ZM6.88281 23.7451L6.88309 22.2451C7.15924 22.2452 7.38275 22.4688 7.38281 22.7448L5.88281 22.7451L4.38281 22.7455C4.38312 24.1257 5.50215 25.2449 6.88253 25.2451L6.88281 23.7451ZM5.88281 22.7451H7.38281V11.2451H5.88281H4.38281V22.7451H5.88281ZM5.88281 11.2451H7.38281C7.38281 9.86441 6.26352 8.74512 4.88281 8.74512V10.2451V11.7451C4.60667 11.7451 4.38281 11.5213 4.38281 11.2451H5.88281ZM4.88281 10.2451V8.74512H1.00195V10.2451V11.7451H4.88281V10.2451ZM1.00195 10.2451L1.00202 8.74512C1.48255 8.74514 1.68532 9.3551 1.30437 9.64377L0.398438 8.44824L-0.507498 7.25272C-2.41631 8.69916 -1.39558 11.745 1.00189 11.7451L1.00195 10.2451ZM0.398438 8.44824L1.30443 9.64372L12.1853 1.39763L11.2793 0.202148L10.3733 -0.99333L-0.50756 7.25276L0.398438 8.44824Z" fill="#333333" mask="url(#path-1-inside-1_33_38)"/>
</svg>
